<?xml version="1.0" encoding="utf-8"?>
<!-- Generator: Adobe Illustrator 23.1.0, SVG Export Plug-In . SVG Version: 6.00 Build 0)  -->
<svg version="1.1" id="Layer_1" xmlns="http://www.w3.org/2000/svg" xmlns:xlink="http://www.w3.org/1999/xlink" x="0px" y="0px"
	 viewBox="0 0 287.6 83.4" style="enable-background:new 0 0 287.6 83.4;" xml:space="preserve">
<style type="text/css">
	.st0{fill:#ffffff;}
</style>
<g>
	<g>
		<path class="st0" d="M155.7,69l-1.4-6.5c-2.5,2.9-5.1,4.9-7.7,6c-2.5,1.1-5.5,1.7-8.8,1.7c-4.1,0-7.8-0.8-11-2.3
			c-3.2-1.5-6-3.6-8.2-6.2c-2.3-2.6-4-5.6-5.2-9.1c-1.2-3.5-1.8-7.1-1.8-11.1c0-3.9,0.6-7.6,1.8-11.1c1.2-3.5,3-6.5,5.2-9.1
			s5-4.7,8.2-6.2c3.2-1.5,6.9-2.3,11-2.3c3,0,5.8,0.4,8.5,1.2c2.7,0.8,5.1,2,7.1,3.5c2.1,1.6,3.8,3.5,5.2,5.8
			c1.4,2.3,2.3,5.1,2.6,8.1h-9.3c-0.3-1.8-0.8-3.4-1.6-4.7c-0.8-1.4-1.9-2.5-3.2-3.4c-1.3-0.9-2.7-1.6-4.3-2.1
			c-1.6-0.5-3.2-0.7-5-0.7c-2.9,0-5.4,0.6-7.6,1.8s-3.8,2.7-5.2,4.7c-1.3,2-2.3,4.2-3,6.7c-0.6,2.5-1,5.1-1,7.7s0.3,5.2,1,7.7
			c0.6,2.5,1.6,4.7,3,6.7c1.3,2,3,3.6,5.2,4.7c2.1,1.2,4.6,1.8,7.6,1.8c2.5,0.1,4.6-0.3,6.5-1c1.9-0.7,3.5-1.7,4.8-3
			c1.3-1.3,2.3-2.9,3-4.8s1-4,1.1-6.3h-14.6v-7.3h23.3V69H155.7z"/>
		<path class="st0" d="M180,13v57.3h-8.7V13H180z"/>
		<path class="st0" d="M189.8,30.8v39.6h8.7V30.8H189.8z"/>
		<rect x="189.8" y="13" class="st0" width="8.7" height="8.3"/>
		<path class="st0" d="M231.8,37.4c-1.6-1.2-3.6-1.9-6.1-1.9c-1.1,0-2.3,0.2-3.6,0.5c-1.3,0.4-2.5,1.1-3.5,2.1c-1.1,1-2,2.5-2.7,4.4
			c-0.7,1.9-1.1,4.3-1.1,7.4c0,1.6,0.2,3.3,0.5,4.9c0.4,1.6,1,3.1,1.9,4.4c0.8,1.3,1.9,2.3,3.2,3.1c1.3,0.8,3,1.2,4.8,1.2
			c2.5,0,4.7-0.8,6.3-2.4c1.6-1.6,2.7-3.8,3.1-6.7h8.7c-0.8,5.2-2.7,9.1-5.8,11.8c-3.1,2.7-7.2,4.1-12.3,4.1c-3.1,0-5.8-0.5-8.2-1.6
			c-2.4-1-4.4-2.5-6-4.3c-1.6-1.8-2.9-4-3.7-6.5c-0.8-2.5-1.2-5.2-1.2-8.1c0-3,0.4-5.8,1.2-8.4c0.8-2.6,2.1-4.9,3.7-6.8
			c1.6-1.9,3.6-3.4,6.1-4.5c2.4-1.1,5.3-1.6,8.5-1.6c2.3,0,4.5,0.3,6.5,0.9c2.1,0.6,3.9,1.4,5.5,2.6c1.6,1.2,3,2.7,3.9,4.5
			c1,1.8,1.6,3.9,1.9,6.4h-8.7C234.4,40.5,233.4,38.6,231.8,37.4z"/>
		<path class="st0" d="M259.6,13v33.7l15.8-16h10.7l-15.2,14.6l16.6,25.1h-10.7l-12.1-19.2l-5.2,5.1v14.2h-8.7V13H259.6z"/>
	</g>
	<path class="st0" d="M78.2,31.9c-4.7,0-8.6,3.3-9.6,7.7H57.3c-0.9-5.8-5.5-10.4-11.3-11.3v-9c4.4-0.9,7.7-4.9,7.7-9.6
		C53.7,4.4,49.4,0,44,0s-9.8,4.4-9.8,9.8c0,4.7,3.3,8.6,7.7,9.6v9c-5.8,0.9-10.4,5.5-11.3,11.3H19.3c-0.9-4.4-4.9-7.7-9.6-7.7
		c-5.4,0-9.8,4.4-9.8,9.8s4.4,9.8,9.8,9.8c4.7,0,8.6-3.3,9.6-7.7h11.3c0.9,5.8,5.5,10.4,11.3,11.3v9c-4.4,0.9-7.7,4.9-7.7,9.6
		c0,5.4,4.4,9.8,9.8,9.8s9.8-4.4,9.8-9.8c0-4.7-3.3-8.6-7.7-9.6v-9c5.8-0.9,10.4-5.5,11.3-11.3h11.3c0.9,4.4,4.9,7.7,9.6,7.7
		c5.4,0,9.8-4.4,9.8-9.8S83.6,31.9,78.2,31.9z"/>
</g>
</svg>
